<svg width="24" height="20" viewBox="0 0 24 20" fill="none" xmlns="http://www.w3.org/2000/svg">
<path d="M0.653867 4.16666H23.9871C23.9862 3.01358 23.9715 2.40917 23.7328 1.94068C23.5091 1.50163 23.1522 1.14468 22.7131 0.920975C22.214 0.666656 21.5606 0.666656 20.2538 0.666656H4.38714C3.08035 0.666656 2.42696 0.666656 1.92783 0.920975C1.48879 1.14468 1.13183 1.50163 0.908127 1.94068C0.669417 2.40917 0.654766 3.01358 0.653867 4.16666Z" fill="#437EF7"/>
<path fill-rule="evenodd" clip-rule="evenodd" d="M23.9871 6.49999H0.653809V15.6C0.653809 16.9068 0.653809 17.5602 0.908127 18.0593C1.13183 18.4983 1.48879 18.8553 1.92783 19.079C2.42696 19.3333 3.08035 19.3333 4.38714 19.3333H20.2538C21.5606 19.3333 22.214 19.3333 22.7131 19.079C23.1522 18.8553 23.5091 18.4983 23.7328 18.0593C23.9871 17.5602 23.9871 16.9068 23.9871 15.6V6.49999ZM4.15381 14.6667C4.15381 14.0223 4.67614 13.5 5.32048 13.5H9.98714C10.6315 13.5 11.1538 14.0223 11.1538 14.6667C11.1538 15.311 10.6315 15.8333 9.98714 15.8333H5.32048C4.67614 15.8333 4.15381 15.311 4.15381 14.6667ZM14.6538 13.5C14.0095 13.5 13.4871 14.0223 13.4871 14.6667C13.4871 15.311 14.0095 15.8333 14.6538 15.8333H19.3205C19.9648 15.8333 20.4871 15.311 20.4871 14.6667C20.4871 14.0223 19.9648 13.5 19.3205 13.5H14.6538Z" fill="#437EF7"/>
</svg>
