<svg width="49" height="48" viewBox="0 0 49 48" fill="none" xmlns="http://www.w3.org/2000/svg">
<rect x="0.5" width="48" height="48" rx="24" fill="#F5FAFF"/>
<path d="M20.5 36H28.5M16.5 20C16.5 15.5817 20.0817 12 24.5 12C28.9183 12 32.5 15.5817 32.5 20C32.5 21.1862 32.2419 22.312 31.7787 23.3245C30.504 26.1108 28.5 28.8167 28.5 31.8808C28.5 31.9466 28.4466 32 28.3808 32H20.6192C20.5534 32 20.5 31.9466 20.5 31.8808C20.5 28.8167 18.496 26.1108 17.2213 23.3245C16.7581 22.312 16.5 21.1862 16.5 20Z" stroke="#437EF7" stroke-width="2" stroke-linecap="round"/>
</svg>
