<svg width="49" height="48" viewBox="0 0 49 48" fill="none" xmlns="http://www.w3.org/2000/svg">
<rect x="0.5" width="48" height="48" rx="24" fill="#F5FAFF"/>
<path d="M28.3976 17.451L25.6477 12.664C25.1371 11.7752 23.8563 11.771 23.3398 12.6564L20.438 17.6309C20.0537 18.2898 19.4056 18.7525 18.6576 18.9021L14.6926 19.6951C13.6657 19.9005 13.2656 21.1553 13.984 21.9172L16.8518 24.9588C17.465 25.6092 17.7116 26.5236 17.5084 27.3941L16.2104 32.9572C15.9436 34.1007 17.1784 35.0058 18.1886 34.4072L23.1409 31.4725C23.9791 30.9758 25.0216 30.9758 25.8598 31.4725L30.8121 34.4072C31.8223 35.0058 33.0571 34.1007 32.7903 32.9572L31.4809 27.3454C31.2841 26.5018 31.5092 25.6152 32.0847 24.9678L34.956 21.7376C35.6401 20.9679 35.2307 19.7463 34.221 19.5443L30.1869 18.7375C29.4329 18.5867 28.7806 18.1178 28.3976 17.451Z" stroke="#437EF7" stroke-width="2" stroke-miterlimit="10"/>
</svg>
