<svg width="49" height="48" viewBox="0 0 49 48" fill="none" xmlns="http://www.w3.org/2000/svg">
<rect x="0.5" width="48" height="48" rx="24" fill="#F5FAFF"/>
<path d="M24.5002 38.6666C32.6003 38.6666 39.1668 32.1001 39.1668 23.9999C39.1668 15.8997 32.6003 9.33325 24.5002 9.33325M24.5002 38.6666C16.4 38.6666 9.8335 32.1001 9.8335 23.9999C9.8335 15.8997 16.4 9.33325 24.5002 9.33325M24.5002 38.6666C27.4457 38.6666 29.8335 32.1001 29.8335 23.9999C29.8335 15.8997 27.4457 9.33325 24.5002 9.33325M24.5002 38.6666C21.5546 38.6666 19.1668 32.1001 19.1668 23.9999C19.1668 15.8997 21.5546 9.33325 24.5002 9.33325M11.1668 18.6666H37.8335M11.1668 27.9999H37.8335" stroke="#437EF7" stroke-width="2" stroke-linecap="round"/>
</svg>
