<svg width="49" height="48" viewBox="0 0 49 48" fill="none" xmlns="http://www.w3.org/2000/svg">
<rect x="0.5" width="48" height="48" rx="24" fill="#437EF7"/>
<path fill-rule="evenodd" clip-rule="evenodd" d="M9.83331 23.9999C9.83331 15.8997 16.3998 9.33325 24.5 9.33325C32.6002 9.33325 39.1666 15.8997 39.1666 23.9999C39.1666 32.1001 32.6002 38.6666 24.5 38.6666C16.3998 38.6666 9.83331 32.1001 9.83331 23.9999ZM24.5 13.3333C25.2364 13.3333 25.8333 13.9302 25.8333 14.6666V19.8518C25.8333 20.5881 25.2364 21.1851 24.5 21.1851C23.7636 21.1851 23.1666 20.5881 23.1666 19.8518V14.6666C23.1666 13.9302 23.7636 13.3333 24.5 13.3333ZM33.8333 25.3333C34.5697 25.3333 35.1666 24.7363 35.1666 23.9999C35.1666 23.2635 34.5697 22.6666 33.8333 22.6666H28.6481C27.9117 22.6666 27.3148 23.2635 27.3148 23.9999C27.3148 24.7363 27.9117 25.3333 28.6481 25.3333H33.8333ZM24.5 26.8147C25.2364 26.8147 25.8333 27.4117 25.8333 28.1481V33.3333C25.8333 34.0696 25.2364 34.6666 24.5 34.6666C23.7636 34.6666 23.1666 34.0696 23.1666 33.3333V28.1481C23.1666 27.4117 23.7636 26.8147 24.5 26.8147ZM20.3518 25.3333C21.0882 25.3333 21.6852 24.7363 21.6852 23.9999C21.6852 23.2635 21.0882 22.6666 20.3518 22.6666H15.1666C14.4303 22.6666 13.8333 23.2635 13.8333 23.9999C13.8333 24.7363 14.4303 25.3333 15.1666 25.3333H20.3518Z" fill="white"/>
</svg>
