<svg width="49" height="48" viewBox="0 0 49 48" fill="none" xmlns="http://www.w3.org/2000/svg">
<rect x="0.5" width="48" height="48" rx="24" fill="#437EF7"/>
<path d="M18.7768 16.3913C19.0267 15.8691 19.1667 15.2843 19.1667 14.6667C19.1667 12.4576 17.3758 10.6667 15.1667 10.6667C12.9575 10.6667 11.1667 12.4576 11.1667 14.6667C11.1667 16.8759 12.9575 18.6667 15.1667 18.6667C15.7842 18.6667 16.369 18.5268 16.8912 18.2769L18.9379 20.3236C18.2398 21.3775 17.8333 22.6413 17.8333 24.0001C17.8333 25.3589 18.2398 26.6227 18.9379 27.6766L17.1907 29.4237C16.9704 29.3648 16.7389 29.3334 16.5 29.3334C15.0272 29.3334 13.8333 30.5273 13.8333 32.0001C13.8333 33.4728 15.0272 34.6667 16.5 34.6667C17.9728 34.6667 19.1667 33.4728 19.1667 32.0001C19.1667 31.7612 19.1353 31.5297 19.0763 31.3094L20.8235 29.5622C21.8774 30.2602 23.1412 30.6667 24.5 30.6667C25.8588 30.6667 27.1226 30.2602 28.1765 29.5622L30.2232 31.6089C29.9733 32.131 29.8333 32.7159 29.8333 33.3334C29.8333 35.5426 31.6242 37.3334 33.8333 37.3334C36.0425 37.3334 37.8333 35.5426 37.8333 33.3334C37.8333 31.1243 36.0425 29.3334 33.8333 29.3334C33.2158 29.3334 32.631 29.4734 32.1088 29.7232L30.0621 27.6766C30.7602 26.6227 31.1667 25.3589 31.1667 24.0001C31.1667 22.6413 30.7602 21.3775 30.0621 20.3236L31.8093 18.5764C32.0296 18.6353 32.2611 18.6667 32.5 18.6667C33.9728 18.6667 35.1667 17.4728 35.1667 16.0001C35.1667 14.5273 33.9728 13.3334 32.5 13.3334C31.0272 13.3334 29.8333 14.5273 29.8333 16.0001C29.8333 16.239 29.8647 16.4705 29.9237 16.6908L28.1765 18.4379C27.1226 17.7399 25.8588 17.3334 24.5 17.3334C23.1412 17.3334 21.8774 17.7399 20.8235 18.4379L18.7768 16.3913Z" fill="white"/>
</svg>
