<svg width="83" height="22" viewBox="0 0 83 22" fill="none" xmlns="http://www.w3.org/2000/svg">
<path d="M26.3164 16.6364L27.3401 14.3343C28.4463 15.1336 29.9157 15.5493 31.3687 15.5493C32.4419 15.5493 33.1188 15.1496 33.1188 14.5421C33.1023 12.8475 26.6962 14.1744 26.6466 9.92186C26.6301 7.76359 28.6114 6.10097 31.4182 6.10097C33.0858 6.10097 34.7534 6.50064 35.9422 7.4119L34.9846 9.76198C33.8949 9.0905 32.541 8.61092 31.2531 8.61092C30.3781 8.61092 29.8002 9.01063 29.8002 9.52216C29.8167 11.1848 36.2724 10.2736 36.3384 14.3343C36.3384 16.5405 34.4067 18.0912 31.6329 18.0912C29.6021 18.0912 27.7363 17.6276 26.3164 16.6364Z" fill="white"/>
<path d="M65.5954 13.503C65.0836 14.3663 64.1259 14.9577 63.0198 14.9577C61.3852 14.9577 60.0644 13.6788 60.0644 12.0961C60.0644 10.5134 61.3852 9.23441 63.0198 9.23441C64.1259 9.23441 65.0836 9.82594 65.5954 10.6893L68.4188 9.17044C67.3621 7.34795 65.3312 6.10097 63.0198 6.10097C59.602 6.10097 56.8282 8.78678 56.8282 12.0961C56.8282 15.4054 59.602 18.0912 63.0198 18.0912C65.3478 18.0912 67.3621 16.8602 68.4188 15.0217L65.5954 13.503Z" fill="white"/>
<path d="M37.7583 1.12901H41.2916V17.8674H37.7583V1.12901Z" fill="white"/>
<path d="M69.8056 1.12901V17.8674H73.3389V12.8475L77.5327 17.8674H82.0566L76.7237 11.9043L81.6604 6.34077H77.3346L73.3389 10.961V1.12901H69.8056Z" fill="white"/>
<path d="M51.7925 13.5349C51.2806 14.3502 50.224 14.9577 49.0352 14.9577C47.4006 14.9577 46.0798 13.6788 46.0798 12.0961C46.0798 10.5134 47.4006 9.23441 49.0352 9.23441C50.224 9.23441 51.2806 9.87387 51.7925 10.7052V13.5349ZM51.7925 6.34077V7.69969C51.2146 6.75643 49.7782 6.10097 48.2757 6.10097C45.1717 6.10097 42.7281 8.75483 42.7281 12.0801C42.7281 15.4054 45.1717 18.0912 48.2757 18.0912C49.7782 18.0912 51.2146 17.4357 51.7925 16.4925V17.8514H55.3258V6.34077H51.7925Z" fill="white"/>
<path d="M4.80574 13.7755C4.80574 14.996 3.81927 15.9825 2.59873 15.9825C1.37819 15.9825 0.39172 14.996 0.39172 13.7755C0.39172 12.555 1.37819 11.5685 2.59873 11.5685H4.80574V13.7755Z" fill="white"/>
<path d="M5.90925 13.7755C5.90925 12.555 6.89571 11.5685 8.11626 11.5685C9.3368 11.5685 10.3232 12.555 10.3232 13.7755V19.293C10.3232 20.5136 9.3368 21.5 8.11626 21.5C6.89571 21.5 5.90925 20.5136 5.90925 19.293V13.7755Z" fill="white"/>
<path d="M8.11625 4.91402C6.89571 4.91402 5.90925 3.92755 5.90925 2.70701C5.90925 1.48647 6.89571 0.5 8.11625 0.5C9.3368 0.5 10.3232 1.48647 10.3232 2.70701V4.91402H8.11625Z" fill="white"/>
<path d="M8.11625 6.03424C9.3368 6.03424 10.3232 7.02074 10.3232 8.24129C10.3232 9.46183 9.3368 10.4483 8.11625 10.4483H2.58201C1.36147 10.4483 0.375 9.46183 0.375 8.24129C0.375 7.02074 1.36147 6.03424 2.58201 6.03424H8.11625Z" fill="white"/>
<path d="M16.961 8.24129C16.961 7.02074 17.9475 6.03424 19.168 6.03424C20.3885 6.03424 21.375 7.02074 21.375 8.24129C21.375 9.46183 20.3885 10.4483 19.168 10.4483H16.961V8.24129Z" fill="white"/>
<path d="M15.8575 8.24129C15.8575 9.46183 14.871 10.4483 13.6505 10.4483C12.43 10.4483 11.4435 9.46183 11.4435 8.24129V2.70701C11.4435 1.48647 12.43 0.5 13.6505 0.5C14.871 0.5 15.8575 1.48647 15.8575 2.70701V8.24129Z" fill="white"/>
<path d="M13.6505 17.086C14.871 17.086 15.8575 18.0725 15.8575 19.293C15.8575 20.5136 14.871 21.5 13.6505 21.5C12.43 21.5 11.4435 20.5136 11.4435 19.293V17.086H13.6505Z" fill="white"/>
<path d="M13.6505 15.9825C12.43 15.9825 11.4435 14.996 11.4435 13.7755C11.4435 12.555 12.43 11.5685 13.6505 11.5685H19.1847C20.4053 11.5685 21.3917 12.555 21.3917 13.7755C21.3917 14.996 20.4053 15.9825 19.1847 15.9825H13.6505Z" fill="white"/>
</svg>
