<svg width="99" height="22" viewBox="0 0 99 22" fill="none" xmlns="http://www.w3.org/2000/svg">
<path d="M36.1099 5.46981C33.3183 5.46981 31.3055 7.63013 31.3055 11.5167C31.3055 15.4335 33.288 17.5938 36.1807 17.5938C38.7701 17.5938 40.4188 16.0392 40.4693 13.576H36.4842V11.1331H43.4936V13.2025C43.4936 17.6544 40.4289 20.4103 36.1605 20.4103C31.3965 20.4103 28.1599 17.0184 28.1599 11.547C28.1599 5.98465 31.5483 2.66343 36.0695 2.66343C39.8827 2.66343 42.8159 5.02564 43.352 8.41753H40.1659C39.6096 6.58025 38.1935 5.46981 36.1099 5.46981ZM45.5974 7.22633H48.6419V20.168H45.5974V7.22633ZM47.1247 5.16697C46.1537 5.16697 45.3648 4.44013 45.3648 3.52149C45.3648 2.60286 46.1638 1.85583 47.1348 1.85583C48.1058 1.85583 48.8948 2.61295 48.8948 3.52149C48.8948 4.43004 48.1058 5.16697 47.1348 5.16697H47.1247ZM57.7855 9.57844H55.2265V16.2815C55.2265 17.5131 55.8435 17.7856 56.6122 17.7856C56.6864 17.7856 56.7606 17.7822 56.8347 17.7755C56.9089 17.7688 56.9831 17.7587 57.0573 17.7452C57.1314 17.7318 57.2056 17.7217 57.2798 17.7149C57.354 17.7015 57.4281 17.6847 57.5023 17.6645L58.0182 20.0469C57.8698 20.1007 57.7215 20.1445 57.5731 20.1781C57.4248 20.2118 57.2764 20.242 57.1281 20.269C56.9797 20.2959 56.828 20.3161 56.6729 20.3295C56.5246 20.343 56.3728 20.3531 56.2178 20.3598C53.9319 20.4305 52.1618 19.2292 52.1719 16.7862V9.58854H50.3412V7.22633H52.1719V4.107H55.2265V7.22633H57.7855V9.57844ZM60.1422 2.89561H63.2676V17.5433H70.8637V20.168H60.1422V2.89561ZM72.391 16.5338C72.391 13.6164 74.7881 12.8694 77.2966 12.5968C79.5825 12.3545 80.5029 12.3142 80.5029 11.4359V11.3854C80.5029 10.1135 79.7241 9.38664 78.308 9.38664C76.8111 9.38664 75.9513 10.1438 75.658 11.0321L72.8057 10.6182C73.4834 8.25601 75.567 7.04462 78.2878 7.04462C80.7558 7.04462 83.5474 8.0743 83.5474 11.4965V20.168H80.6142V18.3913H80.513C79.9567 19.4816 78.743 20.4305 76.7099 20.4305C74.242 20.4305 72.3809 19.0879 72.391 16.5338ZM77.7113 18.1894C79.5521 18.1894 80.7153 16.9679 80.7052 15.5244V14C80.3107 14.3231 78.7126 14.525 77.9034 14.636C76.5481 14.8278 75.5265 15.3124 75.5265 16.4935C75.5265 17.614 76.4368 18.1894 77.7113 18.1894ZM85.7928 2.89561H88.8373V9.35636H88.9688C89.4341 8.41753 90.3848 7.04462 92.6707 7.04462C95.6647 7.04462 98.0113 9.39674 98.0113 13.7073C98.0113 17.9774 95.7254 20.4002 92.6809 20.4002C90.4557 20.4002 89.4543 19.0778 88.9688 18.1288H88.7969V20.168H85.7928V2.89561ZM91.8312 17.8967C93.844 17.8967 94.9061 16.1099 94.9061 13.6972C94.9061 11.2845 93.8542 9.54816 91.8312 9.54816C89.869 9.54816 88.7867 11.1734 88.7867 13.6972C88.7867 16.2108 89.8791 17.8967 91.8312 17.8967Z" fill="white"/>
<path d="M22.7688 10.547C22.7992 11.1426 22.7284 11.7281 22.5564 12.3035C22.3946 12.8688 22.1417 13.414 21.8079 13.8985C21.4742 14.3932 21.0595 14.8273 20.5841 15.1806L20.574 15.1907L16.0325 18.5927L13.7871 20.2886L12.4317 21.3183C12.3508 21.3789 12.2631 21.4226 12.1687 21.4495C12.0743 21.4832 11.9766 21.5 11.8754 21.5C11.7743 21.5 11.6765 21.4832 11.5821 21.4495C11.4877 21.4226 11.4034 21.3789 11.3292 21.3183L9.96376 20.2886L7.72843 18.5927L3.21732 15.2109L3.19709 15.1907L3.17686 15.1806C2.71159 14.8273 2.29689 14.3932 1.96311 13.8985C1.61922 13.414 1.36635 12.8688 1.20452 12.3035C1.04268 11.7281 0.971881 11.1426 0.992111 10.547C1.02245 9.95141 1.14383 9.36591 1.35624 8.81069L1.38658 8.74002L4.35016 0.997223C4.36364 0.956844 4.3805 0.919829 4.40073 0.886179C4.42096 0.85253 4.44456 0.81888 4.47153 0.78523C4.4985 0.75158 4.52548 0.721296 4.55245 0.694376C4.58616 0.667456 4.61988 0.643901 4.65359 0.623712C4.75474 0.563142 4.87611 0.522762 4.99749 0.502573C5.11887 0.492478 5.24024 0.512667 5.3515 0.553047C5.47288 0.593427 5.57402 0.664091 5.65494 0.754945C5.73585 0.8458 5.79654 0.956844 5.82689 1.07798L7.82958 7.2056H15.9314L17.9341 1.07798C17.9745 0.956844 18.0251 0.8458 18.1161 0.754945C18.197 0.664091 18.2982 0.593427 18.4094 0.553047C18.5308 0.512667 18.6522 0.492478 18.7736 0.502573C18.8949 0.522762 19.0062 0.563142 19.1175 0.623712C19.1512 0.643901 19.1815 0.667456 19.2085 0.694376C19.2422 0.721296 19.2726 0.75158 19.2995 0.78523L19.3602 0.886179C19.3804 0.919829 19.4007 0.956844 19.4209 0.997223L22.3845 8.72993L22.4148 8.81069C22.6272 9.36591 22.7486 9.95141 22.7688 10.547Z" fill="white"/>
<path d="M22.7688 10.547C22.7992 11.1426 22.7283 11.7282 22.5665 12.3036C22.3946 12.8689 22.1417 13.414 21.8079 13.8985C21.4742 14.3932 21.0595 14.8273 20.5841 15.1806L20.574 15.1907L16.0325 18.5927L11.8855 15.4532L18.3993 10.5269C18.6892 10.3048 18.9927 10.1029 19.3096 9.92121C19.6265 9.73277 19.9536 9.56452 20.2907 9.41646C20.6279 9.26168 20.9718 9.12708 21.3224 9.01267C21.6663 8.89826 22.0204 8.80396 22.3845 8.72993L22.4148 8.81069C22.6272 9.36591 22.7486 9.95141 22.7688 10.547Z" fill="#F1F2F4"/>
<path d="M11.8855 15.4532L16.0325 18.5927L13.7871 20.2886L12.4317 21.3183C12.3508 21.3789 12.2631 21.4226 12.1687 21.4495C12.0743 21.4832 11.9766 21.5 11.8754 21.5C11.7743 21.5 11.6765 21.4832 11.5821 21.4495C11.4877 21.4226 11.4034 21.3789 11.3292 21.3183L9.96376 20.2886L7.72843 18.5927L11.8855 15.4532Z" fill="#D0D5DD"/>
<path d="M11.8754 15.4534L7.72843 18.5927L3.21732 15.2109L3.19709 15.1907L3.17686 15.1806C2.71159 14.8273 2.29689 14.3932 1.96311 13.8985C1.61922 13.414 1.36635 12.8688 1.20452 12.3035C1.04268 11.7281 0.971881 11.1426 0.992111 10.547C1.02245 9.95141 1.14383 9.36591 1.35624 8.81069L1.38658 8.74002C1.74396 8.81405 2.09797 8.90517 2.44861 9.01284C2.79925 9.12725 3.14315 9.26185 3.4803 9.41664C3.81071 9.5647 4.13438 9.73295 4.4513 9.92139C4.76823 10.1098 5.07504 10.3117 5.37173 10.5271L11.8754 15.4534Z" fill="#F1F2F4"/>
</svg>
