<svg width="79" height="22" viewBox="0 0 79 22" fill="none" xmlns="http://www.w3.org/2000/svg">
<path d="M13.4263 1.51921C12.4414 0.840442 11.1561 0.500237 9.57057 0.500237H3.43205C2.94597 0.500237 2.67743 0.743929 2.62642 1.23084L0.132827 16.9222C0.106911 17.0763 0.145375 17.2172 0.247867 17.3454C0.349773 17.4737 0.477947 17.5376 0.631451 17.5376H3.54721C4.05861 17.5376 4.3397 17.2945 4.3913 16.8069L5.08178 12.5766C5.10699 12.3716 5.19693 12.2049 5.35044 12.0765C5.50382 11.9484 5.69568 11.8646 5.92587 11.8262C6.15607 11.7882 6.37313 11.7689 6.57812 11.7689C6.78252 11.7689 7.02538 11.7819 7.30717 11.8074C7.58827 11.8329 7.76745 11.8455 7.84426 11.8455C10.0437 11.8455 11.7702 11.2242 13.0236 9.98026C14.2765 8.737 14.9037 7.01293 14.9037 4.80735C14.9037 3.29465 14.4108 2.19868 13.4263 1.51885V1.51921ZM10.2614 6.23083C10.1331 7.12837 9.801 7.71779 9.26391 7.99993C8.7267 8.28241 7.95942 8.42301 6.96205 8.42301L5.69591 8.46133L6.34827 4.34606C6.39917 4.06428 6.56534 3.92322 6.8469 3.92322H7.57607C8.59865 3.92322 9.34084 4.07099 9.80123 4.36534C10.2614 4.66041 10.4149 5.28239 10.2614 6.23083Z" fill="white"/>
<path d="M78.2064 0.5H75.3677C75.0856 0.5 74.9195 0.641068 74.8689 0.923319L72.375 16.9226L72.3366 16.9995C72.3366 17.1283 72.3877 17.2495 72.4903 17.365C72.592 17.4802 72.7205 17.5379 72.8738 17.5379H75.4063C75.8914 17.5379 76.1601 17.2948 76.2121 16.8073L78.7056 1.0772V1.03899C78.7055 0.679861 78.5388 0.500472 78.2064 0.500472V0.5Z" fill="white"/>
<path d="M43.9078 6.69283C43.9078 6.56493 43.8565 6.4429 43.7548 6.32782C43.6522 6.21249 43.537 6.15442 43.4095 6.15442H40.4554C40.1734 6.15442 39.9432 6.28326 39.7645 6.53894L35.6979 12.5389L34.0098 6.76994C33.8813 6.36003 33.6003 6.15442 33.1659 6.15442H30.288C30.1598 6.15442 30.0448 6.21226 29.9431 6.32782C29.8405 6.4429 29.7896 6.56516 29.7896 6.69283C29.7896 6.74443 30.039 7.50055 30.5376 8.962C31.0363 10.4239 31.5734 12.0008 32.1489 13.6931C32.7245 15.3851 33.0248 16.283 33.0505 16.3847C30.953 19.2568 29.9047 20.7951 29.9047 20.9999C29.9047 21.3335 30.0707 21.5 30.4035 21.5H33.3576C33.6388 21.5 33.8689 21.3721 34.0483 21.1156L43.8316 6.96191C43.8824 6.91113 43.9078 6.82178 43.9078 6.69271V6.69283Z" fill="white"/>
<path d="M71.4166 6.15442H68.5007C68.1422 6.15442 67.9257 6.57762 67.8488 7.4239C67.183 6.39858 65.9689 5.88522 64.2037 5.88522C62.3622 5.88522 60.7954 6.57762 59.504 7.96219C58.2122 9.34676 57.5667 10.9754 57.5667 12.8469C57.5667 14.3599 58.0078 15.5649 58.89 16.4619C59.7725 17.3599 60.9552 17.8081 62.4393 17.8081C63.1809 17.8081 63.9354 17.6539 64.7027 17.3465C65.4699 17.0389 66.0705 16.6289 66.5061 16.1158C66.5061 16.1416 66.48 16.2566 66.4294 16.4616C66.3777 16.6671 66.3525 16.8214 66.3525 16.9231C66.3525 17.3338 66.5183 17.5384 66.8514 17.5384H69.4988C69.9842 17.5384 70.2659 17.2953 70.3423 16.8078L71.9156 6.76971C71.9408 6.61571 71.9026 6.47499 71.8004 6.34662C71.6976 6.21872 71.57 6.15442 71.4166 6.15442ZM66.41 13.7313C65.7577 14.3724 64.9711 14.6927 64.0504 14.6927C63.3083 14.6927 62.7078 14.4879 62.2472 14.0774C61.7865 13.6681 61.5564 13.1039 61.5564 12.3852C61.5564 11.4372 61.8761 10.6353 62.5158 9.98156C63.1544 9.32771 63.948 9.00091 64.8944 9.00091C65.61 9.00091 66.2047 9.21239 66.6784 9.63524C67.1511 10.0584 67.3884 10.6418 67.3884 11.3855C67.3882 12.3085 67.0621 13.0907 66.41 13.7313Z" fill="white"/>
<path d="M27.8327 6.15442H24.9169C24.5583 6.15442 24.3413 6.57762 24.2645 7.4239C23.5739 6.39858 22.3589 5.88522 20.6197 5.88522C18.7781 5.88522 17.2113 6.57762 15.9198 7.96219C14.628 9.34676 13.9824 10.9754 13.9824 12.8469C13.9824 14.3599 14.4237 15.5649 15.3061 16.4619C16.1886 17.3599 17.3712 17.8081 18.8549 17.8081C19.5707 17.8081 20.3129 17.6539 21.0801 17.3465C21.8474 17.0389 22.4613 16.6289 22.9217 16.1158C22.819 16.4232 22.7682 16.6926 22.7682 16.9231C22.7682 17.3338 22.9343 17.5384 23.2669 17.5384H25.9141C26.3997 17.5384 26.6814 17.2953 26.7582 16.8078L28.3311 6.76971C28.3563 6.61571 28.3181 6.47499 28.2161 6.34662C28.1137 6.21872 27.986 6.15442 27.8327 6.15442ZM22.826 13.7504C22.1736 14.3793 21.374 14.6927 20.4282 14.6927C19.686 14.6927 19.0913 14.4879 18.6441 14.0774C18.1962 13.6681 17.9726 13.1039 17.9726 12.3852C17.9726 11.4372 18.2921 10.6353 18.9318 9.98156C19.5708 9.32771 20.3638 9.00079 21.3105 9.00079C22.0263 9.00079 22.621 9.21239 23.0946 9.63524C23.5675 10.0584 23.8043 10.6418 23.8043 11.3855C23.8042 12.3342 23.4782 13.1229 22.826 13.7504Z" fill="white"/>
<path d="M57.0102 1.51921C56.0254 0.840442 54.7405 0.500237 53.1546 0.500237H47.0543C46.5426 0.500237 46.2611 0.743929 46.2103 1.23084L43.7165 16.9222C43.6906 17.0763 43.729 17.2172 43.8316 17.3454C43.9331 17.4737 44.0616 17.5376 44.2151 17.5376H47.3609C47.6678 17.5376 47.8723 17.3711 47.9749 17.0377L48.6655 12.5766C48.691 12.3716 48.7805 12.2049 48.9342 12.0765C49.0877 11.9484 49.2793 11.8646 49.5097 11.8262C49.7397 11.7882 49.9568 11.7689 50.1619 11.7689C50.3664 11.7689 50.6091 11.7819 50.8907 11.8074C51.1719 11.8329 51.3516 11.8455 51.4278 11.8455C53.6277 11.8455 55.3538 11.2242 56.6073 9.98026C57.8606 8.737 58.4872 7.01293 58.4872 4.80735C58.4873 3.29465 57.9947 2.19856 57.0102 1.51885V1.51921ZM53.0779 7.84593C52.5151 8.23045 51.6709 8.42265 50.5458 8.42265L49.3179 8.46121L49.9701 4.34583C50.0208 4.06417 50.1871 3.92286 50.4688 3.92286H51.1591C51.7219 3.92286 52.1694 3.94861 52.5024 3.99975C52.8343 4.05124 53.1546 4.21123 53.4615 4.48031C53.7686 4.74963 53.9218 5.14086 53.9218 5.6534C53.9218 6.73068 53.6402 7.46105 53.0779 7.84593Z" fill="white"/>
</svg>
