<svg width="79" height="22" viewBox="0 0 79 22" fill="none" xmlns="http://www.w3.org/2000/svg">
<path d="M74.1934 10.496L78.35 21.5C77.125 21.3251 75.9007 21.1059 74.6541 20.9085L72.3125 14.8284L69.9067 20.4066C68.7258 20.2092 67.5659 20.1434 66.3849 19.9901L70.6067 10.3652L66.7775 0.5H70.3217L72.4651 6.01182L74.7625 0.5H78.3493L74.1934 10.496ZM63.979 0.5H60.7632V19.575C61.8133 19.6408 62.9066 19.6842 63.979 19.8151V0.5ZM57.9849 19.356C55.0541 19.1592 52.1224 18.9849 49.1257 18.9184V0.500085H52.4067V15.8125C54.2882 15.8559 56.1691 16.0086 57.9849 16.096V19.356ZM45.625 7.95988V11.2408H41.1408V18.7H37.9041V0.5H47.0915V3.78089H41.1415V7.95997H45.6257L45.625 7.95988ZM32.3908 3.78089V18.875C31.2967 18.875 30.1817 18.875 29.1092 18.9184V3.78089H25.7185V0.5H35.8025V3.78089H32.3908ZM22.1751 11.4151C20.7317 11.4151 19.025 11.4151 17.8001 11.4816V16.3592C19.7251 16.2276 21.65 16.075 23.5967 16.0092V19.1592L14.5192 19.8816V0.5H23.5961V3.78089H17.8V8.19998C19.0691 8.19998 21.0158 8.13423 22.1749 8.13423V11.4158L22.1751 11.4151ZM3.99601 9.57759V21.0401C2.81581 21.1717 1.76509 21.325 0.649963 21.5V0.5H3.77831L8.0435 12.4225V0.5H11.3251V20.1434C10.1658 20.3408 8.98428 20.4066 7.73757 20.5809L3.99601 9.57759Z" fill="white"/>
</svg>
