<svg width="121" height="21" viewBox="0 0 121 21" fill="none" xmlns="http://www.w3.org/2000/svg">
<path fill-rule="evenodd" clip-rule="evenodd" d="M91.4063 13.9347C92.7176 17.1789 95.6171 19.5017 99.1093 20.1147C101.151 20.4692 104.205 19.9297 106.228 18.8544C107.91 17.9584 108.179 17.6216 107.891 16.7882C107.753 16.3848 107.662 14.4772 107.662 11.9263V7.72235L98.9712 7.60386V12.1789L102.178 12.1544L102.247 12.9603C102.329 13.9435 102.104 14.1139 100.733 14.1139C99.4099 14.1139 98.2679 13.4852 97.4307 12.2935C96.8892 11.5258 96.803 11.2183 96.8098 10.1235C96.8226 8.43329 97.4228 7.27973 98.7215 6.44149C99.6312 5.85786 99.7967 5.82261 101.247 5.90095C102.265 5.95677 103.242 6.16633 104.091 6.51298L105.382 7.03786V0L102.021 0.106738C98.2679 0.225227 96.85 0.548379 95.056 1.69802C93.0339 2.99846 91.4817 5.2331 90.905 7.68318C90.5015 9.40176 90.7307 12.2651 91.4063 13.9347ZM4.19372 12.2856C4.15749 15.9666 4.04684 19.1433 3.95283 19.3402C3.79027 19.676 3.99983 19.7035 7.00221 19.6995H10.2288V0.0430869L0.614572 0.153742L0.554838 2.94754L0.5 5.73937L2.38016 5.66397L4.25737 5.59347L4.19372 12.2856ZM11.4736 9.87572V0.0519002H19.951V5.77169L17.6752 5.58074V7.69885H21.1907V0.0430869H27.4011V19.6917H20.7922L20.9939 19.1619C21.1036 18.8701 21.1956 17.2416 21.1956 15.5436V12.4541H17.6556L17.7193 15.714C17.7545 17.507 17.8613 19.1345 17.9563 19.3323C18.1178 19.6682 17.9005 19.6946 14.8002 19.6946H11.4697V9.87572H11.4736ZM108.63 0.513126C108.855 1.13691 108.846 18.877 108.622 19.3402C108.456 19.68 108.8 19.7035 114.464 19.7123H120.484V13.873L120.018 14.016C119.414 14.2011 115.416 14.4185 115.064 14.2833C114.874 14.2128 114.815 13.8524 114.867 13.0906L114.943 12.0007L116.317 12.1143C117.075 12.1789 117.857 12.2935 118.055 12.3718C118.387 12.503 118.418 12.3082 118.418 10.0451V7.57644L114.903 7.7576V5.22135L116.507 5.22625C118.004 5.2331 118.884 5.35649 120.03 5.72371L120.5 5.87353L120.382 0.153742L108.459 0.0430869L108.63 0.513126ZM51.7423 19.0285C48.878 12.1786 43.9563 1.08178 43.5812 0.635238L43.0877 0.0467101H50.0355C53.8555 0.0467101 56.9842 0.118195 56.9842 0.200452C56.9842 0.287605 56.5768 1.42549 56.0833 2.73279L55.1834 5.11138L53.6029 5.17112C52.7333 5.20245 52.0224 5.26512 52.0224 5.30821C52.0224 5.50504 53.9622 10.7137 54.0886 10.8586C54.1679 10.9497 55.1432 8.55246 56.2615 5.53442L58.2915 0.0467101H74.3688V3.06965C74.3688 5.87324 74.3414 6.07888 74.0055 5.92514C73.8087 5.83407 72.5513 5.72341 71.2127 5.67935L68.7832 5.60101V7.75731L72.2996 7.57713V12.4195L71.3831 12.2256C70.8807 12.1189 70.111 12.0601 69.6762 12.0954L68.886 12.1581L68.7597 14.5366H70.6046C71.718 14.5366 72.801 14.4133 73.3298 14.2252C73.8116 14.0549 74.2435 13.9119 74.2856 13.9119C74.3286 13.9119 74.3649 15.2153 74.3649 16.8075V19.7032H68.3415C63.4071 19.7032 62.3564 19.6571 62.5424 19.4348C62.7872 19.1381 62.9929 4.81075 62.7481 4.81075C62.6727 4.81075 61.1832 8.16076 59.4411 12.257L56.2733 19.7032H52.0224L51.7423 19.0285ZM75.1552 0.046906L75.3246 0.514007C75.5499 1.13289 75.546 18.8749 75.3178 19.3352C75.1513 19.672 75.3765 19.6994 78.6864 19.6994C82.1275 19.6994 82.2303 19.6887 82.0207 19.3009C81.9023 19.0796 81.8073 17.7723 81.8073 16.3925C81.8073 13.8886 81.8073 13.8856 82.2734 14.0188C83.143 14.2764 84.2799 15.1528 84.8331 15.9812C85.453 16.9223 85.7057 18.5664 85.3384 19.2607L85.0975 19.6994H88.6336C90.7037 19.6994 92.1207 19.6201 92.0541 19.5144C91.9914 19.4106 91.7701 18.305 91.5567 17.0564C91.0866 14.3116 90.2494 12.5607 88.9137 11.5423L88.0294 10.8627L88.5347 10.1831C90.221 7.89656 89.9526 4.06868 87.9658 2.08472C86.35 0.469941 84.509 0.058657 78.9469 0.0557192L75.1552 0.046906ZM28.3649 0.904434C28.784 2.12947 28.6841 18.8394 28.2542 19.3593C27.9938 19.6756 28.4168 19.704 33.9985 19.704H40.014V13.8658L39.5479 14.0156C39.2913 14.0978 38.0311 14.2124 36.7433 14.2682L34.4049 14.3701L34.4676 13.2596L34.5312 12.1521L35.3215 12.0874C35.7563 12.0512 36.526 12.1119 37.0273 12.2187L37.9439 12.4106V7.56822L36.1744 7.66418L34.4049 7.75427L34.5312 5.31986L36.1871 5.26503C37.1223 5.23271 38.316 5.33357 38.928 5.49417L40.014 5.77815V0.0515085H28.0692L28.3649 0.904434ZM83.1547 5.52286C82.7434 5.35149 82.4546 5.2379 82.2577 5.22615C81.819 5.19775 81.8073 5.65996 81.8073 7.07889V8.93946H82.4399C82.8658 8.93946 83.2732 8.74557 83.6796 8.33918C84.6353 7.38245 84.3866 6.03501 83.1547 5.52286Z" fill="#DB0E31"/>
</svg>
