<svg width="101" height="24" viewBox="0 0 101 24" fill="none" xmlns="http://www.w3.org/2000/svg">
<path d="M39.8494 8.56826H43.0209V18.5518H39.8494V8.56826Z" fill="#E60023"/>
<path d="M43.6831 8.56825H46.7378V9.93319H46.7961C47.5355 8.86069 48.4889 8.2758 49.8704 8.2758C52.0495 8.2758 53.3336 9.83571 53.3336 12.0586V18.5518H50.1622V12.7021C50.1622 11.6491 49.6369 10.9276 48.6057 10.9276C47.5551 10.9276 46.8545 11.8051 46.8545 13.0335V18.5518H43.6831V8.56825Z" fill="#E60023"/>
<path d="M43.3375 5.89724C43.3375 4.84422 42.4857 3.99069 41.4351 3.99069C40.3845 3.99069 39.5327 4.84422 39.5327 5.89724C39.5327 6.95017 40.3845 7.8037 41.4351 7.8037C42.4857 7.8037 43.3375 6.95017 43.3375 5.89724Z" fill="#E60023"/>
<path d="M75.6389 8.42405C75.5484 8.41589 75.4446 8.41225 75.3232 8.41225C74.1169 8.41225 73.2998 8.93871 72.5993 10.1282H72.541V8.56826H69.5057V18.5517H72.6771V14.067C72.6771 11.989 73.8254 11.0261 75.6389 11.1941V8.42405Z" fill="#E60023"/>
<path d="M91.2023 12.2535C89.9376 12.0196 88.8091 11.9221 88.8091 11.2202C88.8091 10.5961 89.4124 10.3037 90.1905 10.3037C91.0661 10.3037 91.6693 10.5766 91.786 11.4736H94.7046C94.5489 9.50424 93.0313 8.27573 90.2102 8.27573C87.8558 8.27573 85.9101 9.3677 85.9101 11.4736C85.9101 13.8134 87.7585 14.2814 89.4902 14.574C90.8132 14.808 92.0195 14.9055 92.0195 15.8024C92.0195 16.4459 91.4164 16.7969 90.463 16.7969C89.5065 16.7969 88.8739 16.3913 88.68 15.5685H85.6579C85.8804 17.6208 87.6779 18.8638 90.4825 18.8638C93.0897 18.8638 95.0158 17.7328 95.0158 15.549C95.0158 12.9945 92.9535 12.546 91.2023 12.2535Z" fill="#E60023"/>
<path d="M80.5586 10.5376C81.5898 10.5376 82.3291 11.2981 82.4459 12.4876H78.5156C78.7296 11.2981 79.3523 10.5376 80.5586 10.5376ZM80.7337 16.5628C79.43 16.5628 78.6907 15.7244 78.4961 14.3789H85.6562C85.6757 12.3511 85.0921 10.6156 83.9051 9.52374C83.049 8.74378 81.9205 8.27575 80.5001 8.27575C77.4649 8.27575 75.3831 10.5571 75.3831 13.5406C75.3831 16.5628 77.4066 18.8443 80.6947 18.8443C81.9593 18.8443 82.9712 18.5128 83.8078 17.9278C84.6834 17.3234 85.2671 16.4654 85.481 15.5685H82.3875C82.115 16.1924 81.5703 16.5628 80.7337 16.5628Z" fill="#E60023"/>
<path d="M100.601 16.1976C100.454 16.2034 100.257 16.212 100.076 16.212C99.3948 16.212 98.9669 16.0169 98.9669 15.2369V10.5571H100.601V8.56825H98.9669V5.40938H95.8732V8.56825H94.8998V10.5571H95.8732V15.9194C95.8732 18.0644 97.1963 18.6688 99.0447 18.6688C99.7499 18.6688 100.283 18.6159 100.601 18.5536V16.1976Z" fill="#E60023"/>
<path d="M58.9973 16.2021C58.8707 16.207 58.7247 16.212 58.5883 16.212C57.9074 16.212 57.4792 16.0169 57.4792 15.2369V10.5571H58.9973V8.56824H57.4792V5.40938H54.3857V8.56824H53.3541V10.5571H54.3857V15.9194C54.3857 18.0644 55.7087 18.6688 57.5571 18.6688C58.1825 18.6688 58.6722 18.6271 58.9973 18.5742V16.2021Z" fill="#E60023"/>
<path d="M65.9052 12.4876C65.7885 11.2981 65.0491 10.5376 64.0179 10.5376C62.8116 10.5376 62.189 11.2981 61.9749 12.4876H65.9052ZM58.8425 13.5405C58.8425 10.5571 60.9243 8.27582 63.9596 8.27582C65.3798 8.27582 66.5084 8.74375 67.3645 9.5237C68.5513 10.6157 69.135 12.3511 69.1155 14.379H61.9556C62.15 15.7244 62.8894 16.5629 64.1931 16.5629C65.0296 16.5629 65.5745 16.1924 65.8467 15.5685H68.9404C68.7264 16.4654 68.1427 17.3233 67.2671 17.9279C66.4306 18.5128 65.4188 18.8443 64.1541 18.8443C60.8659 18.8443 58.8425 16.5629 58.8425 13.5405Z" fill="#E60023"/>
<path d="M34.3417 11.1617C35.5869 11.1617 36.2874 10.4207 36.2874 9.30912C36.2874 8.19777 35.5674 7.51529 34.3417 7.51529H31.9095V11.1617H34.3417ZM28.6987 4.60992H34.206C35.8987 4.60992 37.1439 5.07786 38 5.89686C38.8951 6.73524 39.401 7.9248 39.401 9.32869C39.401 12 37.5526 13.8915 34.6924 13.8915H31.9095V18.5518H28.6987V4.60992Z" fill="#E60023"/>
<path d="M24.3464 12C24.3464 18.6274 18.9855 24 12.3725 24C5.75959 24 0.398682 18.6274 0.398682 12C0.398682 5.37252 5.75959 0 12.3725 0C18.9855 0 24.3464 5.37252 24.3464 12Z" fill="white"/>
<path d="M12.3725 0C5.75959 0 0.398682 5.37252 0.398682 12C0.398682 17.0838 3.55338 21.4283 8.00755 23.1767C7.90292 22.2273 7.8083 20.7671 8.04907 19.7306C8.26668 18.7941 9.45315 13.7659 9.45315 13.7659C9.45315 13.7659 9.09499 13.047 9.09499 11.9842C9.09499 10.3156 10.06 9.06991 11.2616 9.06991C12.2832 9.06991 12.7766 9.83855 12.7766 10.7603C12.7766 11.7899 12.1225 13.3292 11.785 14.7557C11.5029 15.9501 12.3826 16.9241 13.5581 16.9241C15.6862 16.9241 17.3222 14.6753 17.3222 11.4291C17.3222 8.55585 15.2621 6.54699 12.3206 6.54699C8.9136 6.54699 6.91384 9.10798 6.91384 11.7546C6.91384 12.786 7.31028 13.892 7.80497 14.4932C7.90283 14.612 7.91716 14.7161 7.88801 14.8374C7.79712 15.2164 7.59512 16.0315 7.55546 16.1983C7.50325 16.4179 7.38193 16.4646 7.155 16.3587C5.65954 15.6611 4.72454 13.4699 4.72454 11.7099C4.72454 7.92453 7.46889 4.44813 12.6361 4.44813C16.7899 4.44813 20.0178 7.41449 20.0178 11.3788C20.0178 15.5144 17.4159 18.8428 13.8045 18.8428C12.5911 18.8428 11.4505 18.2111 11.06 17.4649C11.06 17.4649 10.4596 19.756 10.314 20.3175C10.0437 21.3598 9.31397 22.6663 8.82585 23.4634C9.94617 23.811 11.1382 24 12.3725 24C18.9855 24 24.3464 18.6274 24.3464 12C24.3464 5.37252 18.9855 0 12.3725 0Z" fill="#E60023"/>
</svg>
