<svg width="49" height="48" viewBox="0 0 49 48" fill="none" xmlns="http://www.w3.org/2000/svg">
<rect x="0.5" width="48" height="48" rx="24" fill="#437EF7"/>
<path d="M10.5758 19.3796C10.0941 20.8322 9.83325 22.3856 9.83325 23.9999C9.83325 29.5391 12.9039 34.3611 17.4359 36.8565L22.7446 24.6889L10.5758 19.3796Z" fill="white"/>
<path d="M11.6434 16.9359L23.1666 21.9636V9.39307C18.1935 9.84121 13.9363 12.7717 11.6434 16.9359Z" fill="white"/>
<path d="M24.4999 38.6666C22.8856 38.6666 21.3322 38.4058 19.8795 37.924L25.7106 24.5593C25.7516 24.4708 25.7831 24.377 25.8039 24.2793C25.8261 24.1764 25.8356 24.0727 25.8333 23.9702V9.39307C33.3086 10.0667 39.1666 16.3492 39.1666 23.9999C39.1666 32.1001 32.6001 38.6666 24.4999 38.6666Z" fill="white"/>
</svg>
