<svg width="49" height="48" viewBox="0 0 49 48" fill="none" xmlns="http://www.w3.org/2000/svg">
<rect x="0.5" width="48" height="48" rx="24" fill="#437EF7"/>
<path d="M24.5001 10.6667C19.3454 10.6667 15.1667 14.8454 15.1667 20.0001C15.1667 21.3815 15.4677 22.6962 16.0089 23.8792C16.346 24.6161 16.728 25.3403 17.0931 26.03L17.133 26.1052C17.4896 26.7786 17.8291 27.4198 18.1316 28.0648C18.7602 29.4048 19.1667 30.6373 19.1667 31.8809C19.1667 32.6831 19.8171 33.3334 20.6193 33.3334H28.3809C29.1831 33.3334 29.8334 32.6831 29.8334 31.8809C29.8334 30.6373 30.24 29.4048 30.8685 28.0648C31.171 27.4199 31.5106 26.7787 31.8672 26.1053L31.907 26.03C32.2722 25.3403 32.6541 24.6161 32.9912 23.8792C33.5324 22.6962 33.8334 21.3815 33.8334 20.0001C33.8334 14.8454 29.6547 10.6667 24.5001 10.6667Z" fill="white"/>
<path d="M20.5001 34.6667C19.7637 34.6667 19.1667 35.2637 19.1667 36.0001C19.1667 36.7365 19.7637 37.3334 20.5001 37.3334H28.5001C29.2365 37.3334 29.8334 36.7365 29.8334 36.0001C29.8334 35.2637 29.2365 34.6667 28.5001 34.6667H20.5001Z" fill="white"/>
</svg>
