<svg width="121" height="24" viewBox="0 0 151 28" fill="none" xmlns="http://www.w3.org/2000/svg">
<path d="M36.821 5.56637H40.3702V19.0891H46.9481V22.1412H36.821V5.56637Z" fill="white"/>
<path d="M48.5459 19.3259C48.0025 18.3247 47.7289 17.1993 47.752 16.0603C47.7289 14.9214 48.0025 13.796 48.5459 12.7947C49.0625 11.8592 49.8449 11.0977 50.7941 10.6065C51.846 10.0994 52.9987 9.83604 54.1664 9.83604C55.3342 9.83604 56.4869 10.0994 57.5388 10.6065C58.4866 11.0997 59.2684 11.8606 59.787 12.7947C60.3278 13.7969 60.6001 14.9218 60.5775 16.0603C60.6029 17.2034 60.3304 18.3334 59.787 19.3393C59.2649 20.2673 58.4837 21.0231 57.5388 21.5141C56.4869 22.0212 55.3342 22.2846 54.1664 22.2846C52.9987 22.2846 51.846 22.0212 50.7941 21.5141C49.8449 21.0229 49.0625 20.2615 48.5459 19.3259ZM57.1952 16.0603C57.2327 15.1439 56.9378 14.2447 56.3646 13.5286C56.0948 13.2127 55.7567 12.9624 55.3759 12.7966C54.995 12.6307 54.5814 12.5536 54.1664 12.5712C53.7517 12.5546 53.3387 12.6334 52.9593 12.8017C52.5799 12.97 52.2442 13.2233 51.9782 13.5419C51.4085 14.2592 51.1182 15.1587 51.161 16.0737C51.1182 16.9887 51.4085 17.8882 51.9782 18.6054C52.2442 18.9241 52.5799 19.1773 52.9593 19.3456C53.3387 19.5139 53.7517 19.5928 54.1664 19.5761C54.5836 19.5905 54.9985 19.5093 55.3795 19.3387C55.7605 19.1682 56.0974 18.9128 56.3646 18.5921C56.9378 17.876 57.2327 16.9768 57.1952 16.0603Z" fill="white"/>
<path d="M62.7424 19.3259C62.199 18.3247 61.9254 17.1993 61.9485 16.0603C61.9254 14.9214 62.199 13.796 62.7424 12.7947C63.259 11.8592 64.0414 11.0977 64.9906 10.6065C66.0419 10.0995 67.1941 9.83612 68.3613 9.83612C69.5285 9.83612 70.6806 10.0995 71.7319 10.6065C72.6811 11.0977 73.4635 11.8592 73.9802 12.7947C74.5235 13.796 74.7971 14.9214 74.7741 16.0603C74.7999 17.2038 74.5262 18.3342 73.9802 19.3393C73.46 20.2688 72.6782 21.0251 71.7319 21.5141C70.6806 22.0212 69.5285 22.2845 68.3613 22.2845C67.1941 22.2845 66.0419 22.0212 64.9906 21.5141C64.0414 21.0229 63.259 20.2615 62.7424 19.3259ZM71.3917 16.0603C71.433 15.1455 71.1428 14.2466 70.5745 13.5286C70.2951 13.2228 69.955 12.9785 69.5759 12.8114C69.1969 12.6443 68.7872 12.558 68.3729 12.558C67.9587 12.558 67.549 12.6443 67.1699 12.8114C66.7909 12.9785 66.4508 13.2228 66.1714 13.5286C65.609 14.2489 65.3248 15.1476 65.3708 16.0603C65.3286 16.9747 65.6176 17.8736 66.1848 18.5921C66.4642 18.8979 66.8042 19.1422 67.1833 19.3093C67.5623 19.4764 67.972 19.5627 68.3863 19.5627C68.8005 19.5627 69.2102 19.4764 69.5893 19.3093C69.9683 19.1422 70.3084 18.8979 70.5878 18.5921C71.1514 17.8722 71.4368 16.9735 71.3917 16.0603Z" fill="white"/>
<path d="M79.9543 5.56637V15.1597L84.7343 9.97944H88.4736L84.1372 14.7361L88.7204 22.1412H84.8544L81.7789 17.2211L79.9543 19.1825V22.1412H76.6187V5.56637H79.9543Z" fill="white"/>
<path d="M92.8266 19.396C93.3651 19.7533 94.002 19.933 94.6479 19.9097C95.2229 19.9393 95.7963 19.8246 96.3157 19.5761C96.5071 19.4895 96.6687 19.3484 96.7803 19.1704C96.8918 18.9924 96.9483 18.7854 96.9428 18.5754C96.953 18.4432 96.9328 18.3104 96.8836 18.1872C96.8344 18.0641 96.7577 17.9538 96.6593 17.8649C96.422 17.6909 96.1462 17.5765 95.8554 17.5314C95.5218 17.4613 94.9414 17.3779 94.1509 17.2845C93.2481 17.1761 92.3556 16.9942 91.4823 16.7408C90.8309 16.5535 90.2421 16.1939 89.7778 15.7001C89.332 15.1725 89.103 14.4953 89.1374 13.8054C89.1287 13.0536 89.3627 12.319 89.8045 11.7106C90.2701 11.0782 90.9049 10.5903 91.6358 10.303C92.501 9.95801 93.4264 9.78904 94.3577 9.80599C96.0144 9.82156 97.3486 10.1762 98.3605 10.8701C98.8464 11.1841 99.2495 11.6106 99.5358 12.1134C99.822 12.6162 99.9829 13.1806 100.005 13.7587H96.8361C96.8106 13.5286 96.7323 13.3073 96.6074 13.1124C96.4824 12.9174 96.3141 12.7539 96.1156 12.6346C95.6161 12.3249 95.035 12.1727 94.4478 12.1977C93.9168 12.173 93.3893 12.2954 92.9233 12.5512C92.7494 12.6412 92.6034 12.7771 92.5011 12.944C92.3988 13.111 92.3441 13.3027 92.3429 13.4986C92.3353 13.6221 92.3596 13.7456 92.4133 13.8571C92.467 13.9687 92.5485 14.0646 92.6498 14.1357C92.8933 14.2938 93.1671 14.3995 93.4537 14.4459C93.7873 14.5059 94.3377 14.5793 95.1215 14.656C96.7627 14.8473 98.0213 15.1986 98.8975 15.7101C99.7715 16.2238 100.208 17.1011 100.208 18.3486C100.22 19.1016 99.974 19.8359 99.5113 20.43C99.0033 21.0607 98.3317 21.5396 97.5699 21.8143C96.6503 22.1547 95.675 22.3199 94.6946 22.3013C93.0067 22.3013 91.6347 21.9266 90.5784 21.1772C90.0762 20.8361 89.6629 20.3799 89.3728 19.8467C89.0827 19.3135 88.9242 18.7186 88.9106 18.1118H92.0561C92.0787 18.3702 92.1599 18.6202 92.2934 18.8426C92.4269 19.0651 92.6092 19.2544 92.8266 19.396Z" fill="white"/>
<path d="M107.897 22.2847C106.746 22.3107 105.606 22.0457 104.585 21.5141C103.655 21.0168 102.894 20.2554 102.397 19.3259C101.871 18.3189 101.607 17.196 101.629 16.0603C101.604 14.9212 101.868 13.7942 102.397 12.7847C102.899 11.857 103.665 11.0991 104.598 10.6066C105.628 10.0738 106.775 9.80877 107.934 9.83601C109.559 9.83601 110.884 10.2507 111.907 11.0802C112.953 11.945 113.63 13.1759 113.801 14.5226H110.335C110.22 13.9637 109.921 13.4598 109.485 13.0916C109.037 12.7279 108.473 12.5383 107.897 12.5579C107.498 12.5444 107.102 12.6253 106.74 12.794C106.378 12.9627 106.062 13.2144 105.816 13.5286C105.269 14.2562 104.993 15.1514 105.035 16.0603C104.993 16.9693 105.269 17.8645 105.816 18.5921C106.06 18.9088 106.376 19.163 106.738 19.334C107.1 19.5051 107.497 19.588 107.897 19.5761C108.485 19.5968 109.061 19.4036 109.518 19.0324C109.964 18.6486 110.261 18.1212 110.359 17.5414H113.791C113.635 18.9028 112.962 20.1521 111.91 21.0305C110.876 21.8666 109.538 22.2847 107.897 22.2847Z" fill="white"/>
<path d="M115.739 19.3259C115.196 18.3247 114.922 17.1993 114.945 16.0603C114.922 14.9214 115.196 13.796 115.739 12.7947C116.256 11.8592 117.038 11.0977 117.987 10.6065C119.039 10.0995 120.191 9.83612 121.358 9.83612C122.525 9.83612 123.677 10.0995 124.729 10.6065C125.678 11.0977 126.46 11.8592 126.977 12.7947C127.52 13.796 127.794 14.9214 127.771 16.0603C127.797 17.2038 127.523 18.3342 126.977 19.3393C126.461 20.2664 125.686 21.0224 124.745 21.5141C123.694 22.0212 122.542 22.2845 121.375 22.2845C120.208 22.2845 119.055 22.0212 118.004 21.5141C117.049 21.0256 116.26 20.2639 115.739 19.3259ZM124.389 16.0603C124.43 15.1455 124.14 14.2466 123.571 13.5286C123.292 13.2228 122.952 12.9785 122.573 12.8114C122.194 12.6443 121.784 12.558 121.37 12.558C120.956 12.558 120.546 12.6443 120.167 12.8114C119.788 12.9785 119.448 13.2228 119.168 13.5286C118.601 14.247 118.312 15.146 118.354 16.0603C118.312 16.9747 118.601 17.8736 119.168 18.5921C119.448 18.8979 119.788 19.1422 120.167 19.3093C120.546 19.4764 120.956 19.5627 121.37 19.5627C121.784 19.5627 122.194 19.4764 122.573 19.3093C122.952 19.1422 123.292 18.8979 123.571 18.5921C124.141 17.8746 124.432 16.9755 124.392 16.0603H124.389Z" fill="white"/>
<path d="M141.07 22.1412H138.115L137.805 20.6735C137.377 21.2037 136.831 21.6258 136.211 21.9057C135.59 22.1856 134.912 22.3154 134.232 22.2846C133.593 22.309 132.956 22.2053 132.358 21.9796C131.76 21.7539 131.213 21.4108 130.75 20.9704C129.86 20.0965 129.415 18.6332 129.415 16.5807V9.97943H132.751V16.1771C132.751 17.2845 132.944 18.1151 133.331 18.6755C133.533 18.9569 133.803 19.1819 134.116 19.3291C134.429 19.4762 134.774 19.5406 135.119 19.5161C135.494 19.5329 135.868 19.4565 136.206 19.2934C136.544 19.1304 136.837 18.886 137.057 18.5821C137.518 17.9583 137.744 17.0844 137.744 15.9669V9.97943H141.08L141.07 22.1412Z" fill="white"/>
<path d="M142.254 12.7947V9.97944H144.256V6.56707H147.591V9.97944H150.36V12.7947H147.591V18.1318C147.561 18.4628 147.658 18.793 147.861 19.0557C147.987 19.1616 148.133 19.2413 148.29 19.29C148.447 19.3387 148.612 19.3554 148.775 19.3393H150.5V22.1546H147.761C145.44 22.1546 144.28 20.9949 144.282 18.6755V12.7947H142.254Z" fill="white"/>
<path d="M17.8205 3L0.5 13V7L12.6282 0L17.8205 3Z" fill="white"/>
<path d="M24.7564 7V10.4615L3.5 22.7308L0.5 21V17.7436L21.9231 5.37179L24.7564 7Z" fill="white"/>
<path d="M7.60256 25.1026L24.7564 15.2051V21L12.6282 28L7.60256 25.1026Z" fill="white"/>
</svg>
