<svg width="121" height="24" viewBox="0 0 121 24" fill="none" xmlns="http://www.w3.org/2000/svg">
<path d="M29.5568 5.2529H32.3961V16.0711H37.6585V18.5128H29.5568V5.2529Z" fill="#2E343F"/>
<path d="M38.9367 16.2605C38.502 15.4595 38.2831 14.5592 38.3016 13.6481C38.2831 12.7369 38.502 11.8366 38.9367 11.0356C39.35 10.2871 39.9759 9.67797 40.7353 9.28503C41.5768 8.87933 42.4989 8.66864 43.4331 8.66864C44.3673 8.66864 45.2895 8.87933 46.131 9.28503C46.8892 9.67953 47.5147 10.2883 47.9296 11.0356C48.3622 11.8373 48.5801 12.7373 48.562 13.6481C48.5823 14.5625 48.3643 15.4665 47.9296 16.2712C47.5119 17.0137 46.8869 17.6183 46.131 18.0111C45.2895 18.4168 44.3673 18.6275 43.4331 18.6275C42.4989 18.6275 41.5768 18.4168 40.7353 18.0111C39.9759 17.6182 39.35 17.009 38.9367 16.2605ZM45.8562 13.6481C45.8862 12.9149 45.6502 12.1956 45.1917 11.6227C44.9759 11.37 44.7054 11.1697 44.4007 11.037C44.096 10.9044 43.7652 10.8427 43.4331 10.8568C43.1014 10.8434 42.771 10.9065 42.4674 11.0412C42.1639 11.1758 41.8954 11.3784 41.6826 11.6333C41.2268 12.2071 40.9945 12.9267 41.0288 13.6587C40.9945 14.3907 41.2268 15.1103 41.6826 15.6841C41.8954 15.9391 42.1639 16.1417 42.4674 16.2763C42.771 16.4109 43.1014 16.474 43.4331 16.4607C43.7669 16.4722 44.0988 16.4072 44.4036 16.2708C44.7084 16.1343 44.978 15.93 45.1917 15.6735C45.6502 15.1006 45.8862 14.3812 45.8562 13.6481Z" fill="#2E343F"/>
<path d="M50.2939 16.2606C49.8592 15.4595 49.6403 14.5592 49.6588 13.6481C49.6403 12.7369 49.8592 11.8366 50.2939 11.0356C50.7072 10.2871 51.3331 9.67799 52.0925 9.28504C52.9335 8.87938 53.8552 8.6687 54.789 8.6687C55.7228 8.6687 56.6445 8.87938 57.4855 9.28504C58.2449 9.67799 58.8708 10.2871 59.2841 11.0356C59.7188 11.8366 59.9377 12.7369 59.9192 13.6481C59.9399 14.5629 59.721 15.4672 59.2841 16.2712C58.868 17.0148 58.2426 17.6198 57.4855 18.0111C56.6445 18.4168 55.7228 18.6274 54.789 18.6274C53.8552 18.6274 52.9335 18.4168 52.0925 18.0111C51.3331 17.6182 50.7072 17.009 50.2939 16.2606ZM57.2134 13.6481C57.2464 12.9162 57.0143 12.1971 56.5596 11.6227C56.336 11.378 56.064 11.1826 55.7607 11.0489C55.4575 10.9152 55.1297 10.8462 54.7984 10.8462C54.467 10.8462 54.1392 10.9152 53.836 11.0489C53.5327 11.1826 53.2607 11.378 53.0371 11.6227C52.5872 12.1989 52.3599 12.9179 52.3967 13.6481C52.3629 14.3796 52.5941 15.0987 53.0478 15.6735C53.2713 15.9181 53.5434 16.1135 53.8466 16.2472C54.1499 16.3809 54.4776 16.45 54.809 16.45C55.1404 16.45 55.4682 16.3809 55.7714 16.2472C56.0747 16.1135 56.3467 15.9181 56.5703 15.6735C57.0211 15.0976 57.2494 14.3786 57.2134 13.6481Z" fill="#2E343F"/>
<path d="M64.0634 5.2529V12.9276L67.8874 8.78336H70.8789L67.4098 12.5887L71.0763 18.5128H67.9835L65.5231 14.5767L64.0634 16.1458V18.5128H61.3949V5.2529H64.0634Z" fill="#2E343F"/>
<path d="M74.3613 16.3166C74.7921 16.6025 75.3016 16.7462 75.8183 16.7275C76.2784 16.7513 76.737 16.6595 77.1526 16.4607C77.3057 16.3914 77.435 16.2785 77.5242 16.1361C77.6134 15.9937 77.6587 15.8281 77.6542 15.6601C77.6624 15.5544 77.6462 15.4481 77.6069 15.3496C77.5676 15.251 77.5062 15.1628 77.4274 15.0917C77.2376 14.9525 77.017 14.861 76.7843 14.8249C76.5175 14.7689 76.0531 14.7021 75.4207 14.6274C74.6985 14.5407 73.9845 14.3952 73.2859 14.1925C72.7647 14.0426 72.2937 13.755 71.9223 13.3599C71.5656 12.9378 71.3824 12.3961 71.4099 11.8442C71.403 11.2427 71.5901 10.655 71.9436 10.1683C72.3161 9.66238 72.8239 9.27201 73.4086 9.04221C74.1008 8.76621 74.8411 8.63104 75.5861 8.6446C76.9115 8.65705 77.9789 8.9408 78.7884 9.49586C79.1771 9.7471 79.4996 10.0883 79.7286 10.4905C79.9576 10.8928 80.0863 11.3443 80.1039 11.8068H77.5689C77.5485 11.6226 77.4859 11.4457 77.3859 11.2897C77.2859 11.1337 77.1513 11.0029 76.9925 10.9075C76.5929 10.6597 76.128 10.5379 75.6582 10.5579C75.2334 10.5382 74.8114 10.6361 74.4387 10.8408C74.2996 10.9128 74.1828 11.0215 74.1009 11.155C74.0191 11.2886 73.9753 11.442 73.9743 11.5987C73.9683 11.6975 73.9876 11.7963 74.0306 11.8855C74.0736 11.9748 74.1388 12.0515 74.2199 12.1083C74.4146 12.2349 74.6337 12.3194 74.863 12.3565C75.1298 12.4045 75.5701 12.4633 76.1972 12.5246C77.5101 12.6776 78.5171 12.9587 79.218 13.3679C79.9172 13.7788 80.2667 14.4807 80.2667 15.4787C80.2759 16.0811 80.0792 16.6685 79.709 17.1438C79.3026 17.6484 78.7654 18.0315 78.1559 18.2513C77.4202 18.5236 76.64 18.6557 75.8557 18.6409C74.5054 18.6409 73.4077 18.3411 72.5627 17.7416C72.161 17.4687 71.8303 17.1038 71.5982 16.6772C71.3661 16.2506 71.2393 15.7747 71.2284 15.2892H73.7449C73.763 15.496 73.8279 15.6959 73.9347 15.8739C74.0415 16.0519 74.1874 16.2033 74.3613 16.3166Z" fill="#2E343F"/>
<path d="M86.4177 18.6275C85.4966 18.6484 84.5851 18.4363 83.7678 18.0111C83.0242 17.6133 82.4151 17.0042 82.0173 16.2606C81.5969 15.455 81.3858 14.5566 81.4035 13.6481C81.3833 12.7367 81.5945 11.8352 82.0173 11.0276C82.4192 10.2854 83.0321 9.67905 83.7785 9.28505C84.6021 8.85882 85.5199 8.64682 86.447 8.66862C87.7475 8.66862 88.8069 9.0004 89.6252 9.66398C90.4623 10.3558 91.0043 11.3406 91.1409 12.4179H88.3683C88.2763 11.9708 88.0366 11.5676 87.6879 11.2731C87.3299 10.9821 86.8787 10.8304 86.4177 10.8461C86.0986 10.8354 85.7814 10.9001 85.4921 11.035C85.2027 11.17 84.9493 11.3713 84.7525 11.6227C84.3154 12.2048 84.0946 12.9209 84.1281 13.6481C84.0946 14.3753 84.3154 15.0914 84.7525 15.6735C84.9482 15.9268 85.2011 16.1302 85.4906 16.267C85.78 16.4038 86.0977 16.4702 86.4177 16.4607C86.8883 16.4772 87.349 16.3227 87.7146 16.0257C88.0709 15.7187 88.3088 15.2968 88.387 14.8329H91.1329C91.0082 15.922 90.4693 16.9215 89.6279 17.6242C88.8006 18.2931 87.7306 18.6275 86.4177 18.6275Z" fill="#2E343F"/>
<path d="M92.6913 16.2606C92.2567 15.4595 92.0378 14.5592 92.0562 13.6481C92.0378 12.7369 92.2567 11.8366 92.6913 11.0356C93.1047 10.2871 93.7306 9.67799 94.4899 9.28504C95.331 8.87938 96.2527 8.6687 97.1865 8.6687C98.1202 8.6687 99.042 8.87938 99.883 9.28504C100.642 9.67799 101.268 10.2871 101.682 11.0356C102.116 11.8366 102.335 12.7369 102.317 13.6481C102.337 14.5629 102.118 15.4672 101.682 16.2712C101.269 17.0129 100.648 17.6177 99.8963 18.0111C99.0553 18.4168 98.1336 18.6274 97.1998 18.6274C96.266 18.6274 95.3443 18.4168 94.5033 18.0111C93.739 17.6203 93.1082 17.0109 92.6913 16.2606ZM99.6108 13.6481C99.6439 12.9162 99.4117 12.1971 98.957 11.6227C98.7335 11.378 98.4614 11.1826 98.1582 11.0489C97.855 10.9152 97.5272 10.8462 97.1958 10.8462C96.8644 10.8462 96.5367 10.9152 96.2334 11.0489C95.9302 11.1826 95.6581 11.378 95.4346 11.6227C94.9808 12.1974 94.7497 12.9166 94.7835 13.6481C94.7497 14.3796 94.9808 15.0987 95.4346 15.6735C95.6581 15.9181 95.9302 16.1135 96.2334 16.2472C96.5367 16.3809 96.8644 16.45 97.1958 16.45C97.5272 16.45 97.855 16.3809 98.1582 16.2472C98.4614 16.1135 98.7335 15.9181 98.957 15.6735C99.4127 15.0995 99.6458 14.3802 99.6135 13.6481H99.6108Z" fill="#2E343F"/>
<path d="M112.956 18.5128H110.592L110.344 17.3386C110.002 17.7627 109.565 18.1004 109.069 18.3244C108.572 18.5483 108.03 18.6521 107.486 18.6275C106.975 18.647 106.465 18.5641 105.986 18.3835C105.508 18.2029 105.07 17.9284 104.7 17.5761C103.988 16.877 103.632 15.7064 103.632 14.0644V8.78335H106.301V13.7415C106.301 14.6274 106.456 15.2919 106.765 15.7402C106.926 15.9653 107.142 16.1453 107.393 16.2631C107.643 16.3808 107.919 16.4323 108.195 16.4127C108.496 16.4262 108.794 16.365 109.065 16.2346C109.335 16.1042 109.569 15.9086 109.746 15.6655C110.114 15.1665 110.296 14.4673 110.296 13.5733V8.78335H112.964L112.956 18.5128Z" fill="#2E343F"/>
<path d="M113.903 11.0356V8.78336H115.505V6.05346H118.173V8.78336H120.388V11.0356H118.173V15.3052C118.149 15.5701 118.226 15.8342 118.389 16.0444C118.49 16.1291 118.606 16.1928 118.732 16.2318C118.857 16.2707 118.99 16.2841 119.12 16.2712H120.5V18.5235H118.309C116.452 18.5235 115.524 17.5957 115.526 15.7402V11.0356H113.903Z" fill="#2E343F"/>
<path d="M14.3564 3.1998L0.5 11.1998V6.3998L10.2026 0.799805L14.3564 3.1998Z" fill="#2E343F"/>
<path d="M19.9051 6.3998V9.16903L2.9 18.9844L0.5 17.5998V14.9947L17.6385 5.09724L19.9051 6.3998Z" fill="#2E343F"/>
<path d="M6.18205 20.8819L19.9051 12.9639V17.5998L10.2026 23.1998L6.18205 20.8819Z" fill="#2E343F"/>
</svg>
